<svg xmlns="http://www.w3.org/2000/svg" viewBox="0 0 879.49 120.58"><defs><style>.cls-1{fill:#dd1e38;}.cls-2{fill:#f16263;}.cls-3{fill:#fff8f2;}.cls-4{fill:#1d2d44;}.cls-5{fill:#fff;}</style></defs><g id="Layer_2" data-name="Layer 2"><g id="Layer_1-2" data-name="Layer 1"><path class="cls-1" d="M28.2,51.06a17.18,17.18,0,0,1,1-13.65c.17-.32.34-.64.53-1s.39-.62.59-.92a17.45,17.45,0,0,1,14.47-7.6h.08a18.08,18.08,0,0,1,14.92,7.93l5.13,6.9V14.06L61.4,10.52A36,36,0,0,0,3.79,52.06H28.6C28.46,51.73,28.32,51.4,28.2,51.06Z"/><path class="cls-2" d="M52,88.86l-7.62-5.67,16.1-21.63H37.83l0,.1-.19-.1H10.67l54.27,54.27V71.43Z"/><path class="cls-2" d="M79.57,35.86a18.08,18.08,0,0,1,14.92-7.93h.08A17.44,17.44,0,0,1,109,35.53c.21.3.4.61.59.92s.37.64.54,1a17.22,17.22,0,0,1,1,13.65c-.11.34-.26.67-.4,1H135.6a36,36,0,0,0-6.73-41.54h0a36,36,0,0,0-50.89,0l-3.54,3.54v28.7Z"/><path class="cls-1" d="M101.79,61.56l-.19.1,0-.1H78.93L95,83.19l-7.61,5.67-13-17.44v44.41l54.28-54.27Z"/><path class="cls-1" d="M44.85,37.42h0a7.84,7.84,0,0,0-6.61,3.45l-.3.46c-.09.15-.18.31-.26.47A7.72,7.72,0,0,0,37.18,48a8.73,8.73,0,0,0,3,4.08H60L52,41.24A8.6,8.6,0,0,0,44.85,37.42Z"/><path class="cls-2" d="M102.2,48a7.68,7.68,0,0,0-.46-6.18c-.08-.16-.17-.32-.26-.47s-.19-.31-.29-.46a7.87,7.87,0,0,0-6.62-3.45h0a8.61,8.61,0,0,0-7.13,3.82l-.14.2-7.9,10.62H99.24A8.66,8.66,0,0,0,102.2,48Z"/><path class="cls-3" d="M87.42,88.86,95,83.19,78.93,61.56h22.62l0,.1.19-.1h26.93l.15-.15a36,36,0,0,0,6.73-9.35H110.78c.14-.33.29-.66.4-1a17.22,17.22,0,0,0-1-13.65q-.26-.48-.54-1c-.19-.31-.38-.62-.59-.92a17.44,17.44,0,0,0-14.47-7.6h-.08a18.08,18.08,0,0,0-14.92,7.93l-5.13,6.9V14.06l-4.75,4.75-4.75-4.75v28.7l-5.13-6.9a18.08,18.08,0,0,0-14.92-7.93h-.08a17.45,17.45,0,0,0-14.47,7.6c-.2.3-.4.61-.59.92s-.36.64-.53,1a17.18,17.18,0,0,0-1,13.65c.12.34.26.67.4,1H3.79a36,36,0,0,0,6.72,9.35l.16.15H37.59l.19.1,0-.1H60.45L44.35,83.19,52,88.86l13-17.43v44.4l4.75,4.75,4.75-4.75V71.42Zm-.16-47.42.14-.2a8.61,8.61,0,0,1,7.13-3.82h0a7.87,7.87,0,0,1,6.62,3.45c.1.15.2.3.29.46s.18.31.26.47A7.68,7.68,0,0,1,102.2,48a8.66,8.66,0,0,1-3,4.08H79.36ZM40.14,52.06a8.73,8.73,0,0,1-3-4.08,7.72,7.72,0,0,1,.46-6.18c.08-.16.17-.32.26-.47l.3-.46a7.84,7.84,0,0,1,6.61-3.45h0A8.6,8.6,0,0,1,52,41.24L60,52.06Z"/><path class="cls-4" d="M158.79,88.81v-1c5-3.58,6.52-4.64,6.52-11.59V27.74c0-6.95-1.57-8-6.52-11.59v-1h53.07a27.46,27.46,0,0,0,6.32-.63l3.58,20.74h-1.27c-7-8.42-10-15.16-22-15.16h-13.9V50.48h10.11c8.53,0,10.32-.31,14.53-10.11h1.27V65.54h-1.27c-4.21-9.69-6-10.11-14.53-10.11H184.58V76.17c0,6.32,3.06,8.22,8.64,11.59v1Z"/><path class="cls-4" d="M274.41,87.23A37.19,37.19,0,0,1,262,89.65c-8.42,0-12.42-2.42-13.79-10.63-2.11,6.84-8.32,10.84-17.27,10.84-8.32,0-15.59-4.31-15.59-13.26,0-11.8,12.53-15.17,24.43-17.38l8.11-1.47V50.38c0-5.8-1.37-10.32-8-10.32-4.74,0-7.27,2.31-7.27,6.84,0,2.67.8,4.12,1.86,5A1.69,1.69,0,0,1,234,54.7a16.42,16.42,0,0,1-6.78,1.57c-5.68,0-9.26-3.05-9.26-7.89,0-7.69,8.63-12.85,23.16-12.85,16.64,0,25,5.58,25,18.32,0,5.27-.32,12.95-.32,21.06,0,7.37,1.9,9.48,8.64,11.16ZM242.82,63c-6.85,1.69-9.69,4.32-9.69,10.43,0,4.63,2.1,7.58,6.32,7.58,5.58,0,8.42-4.63,8.42-12.74V61.75Z"/><path class="cls-4" d="M344.09,35.53c10.84,0,15.47,8.32,15.47,18.22v23c0,7,.95,7.9,5.48,11.06v1H335.77v-1c4.52-3.16,5.47-4.11,5.47-11.06V56.38c0-5.69-1.89-9.06-6.53-9.06-5,0-8.63,3.79-8.63,13.48V76.7c0,7,.95,7.9,5.47,11.06v1H302.28v-1c4.53-3.16,5.48-4.11,5.48-11.06V56.38c0-5.69-1.9-9.06-6.53-9.06-5.06,0-8.64,3.79-8.64,13.48V76.7c0,7,1,7.9,5.48,11.06v1H268.8v-1c4.52-3.16,5.47-4.11,5.47-11.06v-28c0-6.95-1.79-8.11-6.32-11.06V36.58h24.22L292.59,50c3.06-9,9.06-14.43,18-14.43,9.48,0,14,6.21,15.27,14.43C328.92,41,335.14,35.53,344.09,35.53Z"/><path class="cls-4" d="M388.42,76.7c0,7,.95,7.9,5.47,11.06v1H364.62v-1c4.53-3.16,5.48-4.11,5.48-11.06v-28c0-6.95-1.79-8.11-6.32-11.06V36.58h24.64Zm-9.37-67a10.16,10.16,0,1,1,0,20.32,10,10,0,0,1-10.32-10.11A10,10,0,0,1,379.05,9.73Z"/><path class="cls-4" d="M417.15,76.7c0,7,1,7.9,5.48,11.06v1H393.35v-1c4.53-3.16,5.48-4.11,5.48-11.06V22.05c0-7-2.11-8.21-6.74-11.06V9.94h25.06Z"/><path class="cls-4" d="M585.2,76.7c0,7,.95,7.9,5.48,11.06v1H561.4v-1c4.53-3.16,5.48-4.11,5.48-11.06v-28c0-6.95-1.79-8.11-6.32-11.06V36.58H585.2Zm-9.37-67a10.16,10.16,0,1,1,0,20.32,10,10,0,0,1-10.32-10.11A10,10,0,0,1,575.83,9.73Z"/><path class="cls-4" d="M614.46,76.17c0,7,3.37,8,9.79,11.38v1.26H590.66v-1c4.53-3.16,5.48-4.11,5.48-11.06V43.43h-7.37v-4l7.37-2.31V30.69c0-13.27,9.48-21.59,25-21.59,10.21,0,18.53,3.26,18.53,11.58,0,5.9-5,8.32-10.11,8.32a17.34,17.34,0,0,1-2.46-.18,2,2,0,0,1-1.51-2.8,12.06,12.06,0,0,0,1-4.92c0-3.68-1.26-7.79-5.47-7.79-5,0-6.64,4.42-6.64,11.69V37.74h15.9l-1.16,5.69H614.46Z"/><path class="cls-4" d="M624.57,39.64c8.85-1.79,19.8-9.48,22.64-20.12h3V37.74h17.27L667,43.43H650.26V70.8c0,6.53,2.21,9.38,7.37,9.38,4.74,0,8.11-3.16,9.9-10l2.32.74c-1.05,10.42-7,19-20.53,19-10.22,0-17.48-5.16-17.38-16.63l.21-29.8h-7.58Z"/><path class="cls-4" d="M686.08,45.74c0,4.22,4,5.37,11.16,7.48C710.09,57,716.62,61,716.62,71.86c0,10.53-9.37,18-22.85,18-7.06,0-12.32-2.63-15.69-4.31l-4.21,4.21h-1.16l-1.16-20h1.58c7.37,9.79,13,15,20.53,15,5,0,9.06-2,9.06-6.21,0-4.53-4.11-5.58-10-7-15.9-4.11-20.32-9.38-20.32-18.64,0-10.32,9-17.27,20.22-17.27,6.21,0,10.21,1.79,14.32,3.47l4.74-3.47h1.05V53.64h-1.47c-6.22-9.06-11.59-13-18.43-13C689.24,40.69,686.08,42.27,686.08,45.74Z"/><path class="cls-4" d="M460.75,36.58v1.05c3.68,2.85,5.47,4.11,5.47,6.43,0,1.37-.84,3.58-1.79,6l-7.89,19.59L446.64,48A14.13,14.13,0,0,1,445,42.48c0-1.9.84-2.84,3.06-4.85V36.58H419.15v1.05c3.58,3.16,5.48,5.27,8.53,11.38l19.8,40.54-4.93,11.2a3.5,3.5,0,0,1-4.21,1.91,9.06,9.06,0,0,0-5,.08c-4.46,1.32-7.13,5.58-6,9.51s5.72,6,10.18,4.72a8.81,8.81,0,0,0,5.66-4.87h0L470.86,49c2.73-6.32,4.52-8.32,8.21-11.38V36.58Z"/><path class="cls-4" d="M529.93,52.9V54c5,3.58,6.53,4.63,6.53,11.58V77.65a13.2,13.2,0,0,1-10.63,4.74c-13.27,0-20.54-13.59-20.54-31,0-18.74,8.64-32.12,21-32.12,10.32,0,16,9,23.16,20.75H551v-26h-1l-6,6c-4.53-3.47-11.06-6-20.22-6-21.69,0-40,15.27-40,38.64,0,22.85,16.11,37.17,37.17,37.17l0,0,1,0A71.56,71.56,0,0,0,536.37,88q12.06-2.61,17.13-2.6c.68,0,1.56,0,2.65.1l.07-15.62,0-4.36c0-7,1.58-8,6.53-11.58V52.9Z"/><path class="cls-4" d="M627.82,37.74a10.9,10.9,0,0,0,6.41-2.05l1.62,3.39-3.48,1.64h-4.55Z"/><path class="cls-4" d="M439.28,102.38s4.44,1.07,7.58-6.15l1.77,4.27-3.12,5-5,.45Z"/><polygon class="cls-5" points="664.03 73.87 669.85 75.94 670.79 67.55 665.23 67.55 664.03 73.87"/><path class="cls-5" d="M626.17,24.24A3.93,3.93,0,0,0,629.52,29c1,.95-3.42,3.85-3.42,3.85l-4.18-1.23-1.15-5.07Z"/><path class="cls-5" d="M233.43,50.69S235,54.84,230.11,56s2.25,2.37,2.25,2.37l6-1.49L240.5,55l.93-2.73s-1.93-2.47-2.53-2.47S233.43,50.69,233.43,50.69Z"/><path class="cls-4" d="M748.12,49.3c0,20.47,10.06,32.1,25.16,32.1,8.28,0,17.22-2.91,23.49-14.54l1.67.67c-4.13,15.1-15.76,24.61-32.76,24.61-23.38,0-40.49-15.66-40.49-40.26,0-23.49,19.13-40.27,41.49-40.27,9.73,0,16.67,2.69,21.48,6.38l6.37-6.38h1.12V39.24H794c-7.27-12.53-13.64-22-24.6-22C756.28,17.21,748.12,31.41,748.12,49.3Z"/><path class="cls-4" d="M831.33,92.14c-16.67,0-30.53-11.41-30.53-28.86s13.86-28.85,30.53-28.85,30.53,11.41,30.53,28.85S848,92.14,831.33,92.14Zm0-52.79c-7.5,0-10,7.16-10,23.93s2.46,23.94,10,23.94,9.95-7.16,9.95-23.94S838.82,39.35,831.33,39.35Z"/><circle class="cls-4" cx="871.04" cy="82.19" r="8.45"/></g></g></svg>