<?xml version="1.0" encoding="UTF-8"?>
<svg width="78px" height="35px" viewBox="0 0 78 35" version="1.1" xmlns="http://www.w3.org/2000/svg" xmlns:xlink="http://www.w3.org/1999/xlink">
    <title>fgc_logo_condensed</title>
    <g id="Design-v2" stroke="none" stroke-width="1" fill="none" fill-rule="evenodd">
        <g id="1c-Main-Nav" transform="translate(-37.000000, -932.000000)">
            <g id="Group-4" transform="translate(37.000000, 932.000000)">
                <path d="M21.5582792,4.78102713 C22.7423625,4.78102713 23.8573833,5.25637597 24.69805,6.1197093 C25.2567792,6.69327519 25.6343208,7.38133721 25.837175,8.11063953 L30.6899667,8.11063953 C30.4291542,6.15959302 29.5716958,4.27773256 28.1138,2.78087209 C26.3674667,0.987732558 24.0393833,0.000135658915 21.5582792,0.000135658915 C19.8336125,0.000135658915 18.1831542,0.477112403 16.7504458,1.3702907 L20.1564458,5.01978682 C20.60305,4.86567829 21.0737583,4.78102713 21.5582792,4.78102713" id="Fill-16-Copy" fill="#DC1E38"></path>
                <path d="M30.7754687,9.52271318 L26.0117812,9.52271318 L24.8109062,9.52271318 C22.8427604,9.52271318 20.9794271,8.66453488 19.6981146,7.16767442 L18.8189896,6.14046512 L15.3934896,2.40143411 C15.3921354,2.4027907 15.3905104,2.40387597 15.3891562,2.40523256 C13.6926562,0.85003876 11.5221979,1.92782913e-15 9.22011458,1.92782913e-15 C6.73901042,1.92782913e-15 4.41092708,0.987596899 2.66459375,2.78073643 C-0.888197917,6.42833333 -0.888197917,12.3634109 2.66459375,16.0110078 L13.0385937,26.6621318 C13.6525729,27.2929457 14.5094896,27.6546124 15.3891562,27.6546124 C16.2688229,27.6546124 17.1254687,27.2929457 17.7389062,26.6626744 L28.1137187,16.0110078 C28.1651771,15.9583721 28.2125729,15.9030233 28.2624062,15.849031 L21.6034271,15.849031 L15.3891562,22.2293411 L6.08034375,12.6718992 C4.32101042,10.8654651 4.32101042,7.92600775 6.08034375,6.11957364 C6.92101042,5.25624031 8.03630208,4.78089147 9.22011458,4.78089147 C10.4044687,4.78089147 11.5194896,5.25624031 12.3601562,6.11984496 L13.6281979,7.42135659 L16.0754479,10.2802326 C17.9152187,12.4296124 20.4591562,13.8041085 23.2203021,14.1891085 L29.4264479,14.3036047 L30.7754687,9.52271318 Z" id="Fill-17-Copy" fill="#DC1E38"></path>
                <path d="M39.9852646,9.38309302 C39.9874312,9.14406202 39.9920354,8.95278295 40.0001604,8.81332558 C40.0107229,8.61960465 40.0483687,8.37677519 40.1130979,8.08565116 C40.1775562,7.79452713 40.2853479,7.58425581 40.4359312,7.45510853 C40.5862437,7.3254186 40.7912646,7.196 41.0496396,7.06685271 C41.3080146,6.93716279 41.6519729,6.87828682 42.0828687,6.88886822 C42.5132229,6.89999225 43.0194104,6.96944961 43.6006187,7.09913953 L43.6006187,2.95855814 C42.5237854,2.6139845 41.3183062,2.44088372 39.9839104,2.44088372 C39.1007229,2.44088372 38.3423896,2.58169767 37.7072854,2.86142636 C37.0724521,3.14196899 36.5773687,3.49793798 36.2220354,3.9287907 C35.8669729,4.36045736 35.5815146,4.91068992 35.3664729,5.57867442 C35.1508896,6.24720155 35.0059937,6.89429457 34.9304312,7.51968217 C34.8600146,8.10220155 34.8242646,8.77235659 34.8196604,9.52282171 L34.8177646,9.52282171 L32.6892854,14.3037132 L34.8177646,14.3037132 L34.8177646,14.3449535 L34.8177646,18.4980155 L34.8177646,25.7316202 L39.9839104,25.7316202 L39.9839104,17.7090233 L39.9839104,14.3449535 L39.9839104,14.3037132 L43.6003479,14.3037132 L43.6003479,9.52282171 L39.9839104,9.52282171 L39.9839104,9.38309302 L39.9852646,9.38309302 Z" id="Fill-18-Copy" fill="#1C2C43"></path>
                <polygon id="Fill-19-Copy" fill="#1C2C43" points="32.0864104 9.52271318 43.6003479 9.52271318 43.6003479 14.3036047 30.7373896 14.3036047"></polygon>
                <path d="M50.106875,20.7853876 C50.8172708,21.5404651 51.6676875,21.9178682 52.6578542,21.9178682 C53.6474792,21.9178682 54.4984375,21.5404651 55.2088333,20.7853876 C55.9189583,20.031124 56.2742917,19.1146124 56.2742917,18.0358527 C56.2742917,16.957907 55.9189583,16.0413953 55.2088333,15.2863178 C54.4984375,14.5317829 53.6474792,14.1541085 52.6578542,14.1541085 C51.6676875,14.1541085 50.8172708,14.5317829 50.106875,15.2863178 C49.3964792,16.0413953 49.0411458,16.957907 49.0411458,18.0358527 C49.0411458,19.1146124 49.3964792,20.031124 50.106875,20.7853876 L50.106875,20.7853876 Z M56.2742917,10.0135271 L61.4407083,10.0135271 L61.4407083,24.5054264 C61.4407083,27.8263566 60.6062708,30.3816279 58.9379375,32.1720543 C57.2696042,33.9613953 55.0038125,34.8567442 52.141375,34.8567442 C50.8061667,34.8567442 49.4931667,34.6410465 48.2018333,34.2099225 C46.9102292,33.7785271 45.9520208,33.3471318 45.32775,32.9160078 L44.3914792,32.2689147 L46.3290208,28.1283333 C47.3189167,28.8182946 48.228375,29.335969 49.0576667,29.6813566 C49.8861458,30.0262016 50.8172708,30.1987597 51.8502292,30.1987597 C53.2065625,30.1987597 54.2828542,29.7562403 55.079375,28.8725581 C55.875625,27.988062 56.2742917,26.8232946 56.2742917,25.3790698 L56.2742917,24.6996899 C54.9610208,25.9507364 53.4110417,26.5758527 51.624625,26.5758527 C49.4717708,26.5758527 47.6414792,25.7458915 46.135375,24.0848837 C44.6281875,22.4246899 43.875,20.4082558 43.875,18.0358527 C43.875,15.6637209 44.6281875,13.6475581 46.135375,11.9868217 C47.6414792,10.3266279 49.4717708,9.49612403 51.624625,9.49612403 C53.4110417,9.49612403 54.9610208,10.1217829 56.2742917,11.3722868 L56.2742917,10.0135271 Z" id="Fill-9-Copy" fill="#1C2C43"></path>
                <path d="M75.9430208,20.4619767 L77.8158333,24.6025581 C76.4381042,25.9184496 74.4141667,26.5758527 71.745375,26.5758527 C69.0113125,26.5758527 66.8422083,25.7621705 65.238875,24.1337209 C63.635,22.5055426 62.8333333,20.4731008 62.8333333,18.036124 C62.8333333,15.5991473 63.6404167,13.5672481 65.255125,11.9385271 C66.8692917,10.3103488 69.0329792,9.49612403 71.745375,9.49612403 C74.3497083,9.49612403 76.3736458,10.1543411 77.8158333,11.4694186 L75.9430208,15.6422868 C74.8017292,14.6506202 73.5103958,14.1541085 72.0682083,14.1541085 C70.9488542,14.1541085 69.990375,14.5320543 69.1943958,15.2865891 C68.397875,16.0413953 67.99975,16.957907 67.99975,18.036124 C67.99975,19.1146124 68.3921875,20.031124 69.1781458,20.7853876 C69.9638333,21.5407364 70.9269167,21.9178682 72.0682083,21.9178682 C73.5103958,21.9178682 74.8017292,21.4324806 75.9430208,20.4619767" id="Fill-14-Copy" fill="#1C2C43"></path>
            </g>
        </g>
    </g>
</svg>